<svg xmlns="http://www.w3.org/2000/svg" width="512" height="512" viewBox="0 0 512 512" fill="none">
  <rect width="512" height="512" rx="128" fill="#0d1117"/>
  <path d="M256 128C185.307 128 128 185.307 128 256C128 326.693 185.307 384 256 384C326.693 384 384 326.693 384 256C384 185.307 326.693 128 256 128ZM256 352C203.065 352 160 308.935 160 256C160 203.065 203.065 160 256 160C308.935 160 352 203.065 352 256C352 308.935 308.935 352 256 352Z" fill="#3a86ff"/>
  <path d="M256 192C221.888 192 192 221.888 192 256C192 290.112 221.888 320 256 320C290.112 320 320 290.112 320 256C320 221.888 290.112 192 256 192ZM256 288C239.431 288 224 272.569 224 256C224 239.431 239.431 224 256 224C272.569 224 288 239.431 288 256C288 272.569 272.569 288 256 288Z" fill="#8338ec"/>
  <path d="M256 240C248.268 240 240 248.268 240 256C240 263.732 248.268 272 256 272C263.732 272 272 263.732 272 256C272 248.268 263.732 240 256 240Z" fill="#ff006e"/>
</svg>
